#include "hUGEDriver.h"
#include <stddef.h>

static const unsigned char order_cnt = 14;

static const unsigned char P0[] = {
    DN(___,0,0x8BD),
    DN(___,0,0x000),
    DN(___,0,0x000),
    DN(___,0,0x000),
    DN(___,0,0x000),
    DN(___,0,0x000),
    DN(___,0,0x000),
    DN(___,0,0x000),
    DN(___,0,0x000),
    DN(___,0,0x000),
    DN(___,0,0x000),
    DN(___,0,0x000),
    DN(___,0,0x000),
    DN(___,0,0x000),
    DN(___,0,0x000),
    DN(___,0,0x000),
    DN(___,0,0x000),
    DN(___,0,0x000),
    DN(___,0,0x000),
    DN(___,0,0x000),
    DN(___,0,0x000),
    DN(___,0,0x000),
    DN(___,0,0x000),
    DN(___,0,0x000),
    DN(___,0,0x000),
    DN(___,0,0x000),
    DN(___,0,0x000),
    DN(___,0,0x000),
    DN(___,0,0x000),
    DN(___,0,0x000),
    DN(___,0,0x000),
    DN(___,0,0x000),
    DN(___,0,0x000),
    DN(___,0,0x000),
    DN(___,0,0x000),
    DN(___,0,0x000),
    DN(___,0,0x000),
    DN(___,0,0x000),
    DN(___,0,0x000),
    DN(___,0,0x000),
    DN(___,0,0x000),
    DN(___,0,0x000),
    DN(___,0,0x000),
    DN(___,0,0x000),
    DN(___,0,0x000),
    DN(___,0,0x000),
    DN(___,0,0x000),
    DN(___,0,0x000),
    DN(___,0,0x000),
    DN(___,0,0x000),
    DN(___,0,0x000),
    DN(___,0,0x000),
    DN(___,0,0x000),
    DN(___,0,0x000),
    DN(___,0,0x000),
    DN(___,0,0x000),
    DN(___,0,0x000),
    DN(___,0,0x000),
    DN(___,0,0x000),
    DN(___,0,0x000),
    DN(___,0,0x000),
    DN(___,0,0x000),
    DN(___,0,0x000),
    DN(___,0,0x000),
};
static const unsigned char P1[] = {
    DN(C_6,8,0xC0B),
    DN(___,0,0x000),
    DN(G_5,8,0xC0B),
    DN(G_5,8,0xC0B),
    DN(C_6,8,0xC0B),
    DN(___,0,0x000),
    DN(___,0,0x000),
    DN(___,0,0x000),
    DN(___,0,0x000),
    DN(___,0,0x000),
    DN(G_5,8,0xC0B),
    DN(___,0,0x000),
    DN(C_6,8,0xC0B),
    DN(___,0,0x000),
    DN(G_6,8,0xC0B),
    DN(___,0,0x000),
    DN(D_6,8,0xC0B),
    DN(___,0,0x000),
    DN(As5,8,0xC0B),
    DN(C_6,8,0xC0B),
    DN(D_6,8,0xC0B),
    DN(___,0,0x000),
    DN(___,0,0x000),
    DN(___,0,0x000),
    DN(___,0,0x000),
    DN(___,0,0x000),
    DN(D_6,8,0xC0B),
    DN(Ds6,8,0xC0B),
    DN(D_6,8,0xC0B),
    DN(Ds6,8,0xC0B),
    DN(D_6,8,0xC0B),
    DN(As5,8,0xC0B),
    DN(C_6,8,0xC0B),
    DN(___,0,0x000),
    DN(___,0,0x000),
    DN(___,0,0x000),
    DN(___,0,0x000),
    DN(___,0,0x000),
    DN(___,0,0x000),
    DN(___,0,0x000),
    DN(___,0,0x000),
    DN(___,0,0x000),
    DN(___,0,0x000),
    DN(___,0,0x000),
    DN(___,0,0x000),
    DN(___,0,0x000),
    DN(___,0,0x000),
    DN(___,0,0x000),
    DN(___,0,0x000),
    DN(___,0,0x000),
    DN(___,0,0x000),
    DN(___,0,0x000),
    DN(___,0,0x000),
    DN(___,0,0x000),
    DN(___,0,0x000),
    DN(___,0,0x000),
    DN(___,0,0x000),
    DN(___,0,0x000),
    DN(___,0,0x000),
    DN(___,0,0x000),
    DN(___,0,0x000),
    DN(___,0,0x000),
    DN(___,0,0x000),
    DN(___,0,0x000),
};
static const unsigned char P2[] = {
    DN(G_4,5,0xC08),
    DN(___,0,0xA0F),
    DN(G_4,5,0xC08),
    DN(G_4,5,0xC08),
    DN(G_4,5,0xC08),
    DN(___,0,0xA0F),
    DN(___,0,0x000),
    DN(___,0,0x000),
    DN(___,0,0x000),
    DN(___,0,0x000),
    DN(G_4,5,0xC08),
    DN(G_4,5,0xC08),
    DN(G_4,5,0xC08),
    DN(G_4,5,0xC08),
    DN(G_4,5,0xC08),
    DN(G_4,5,0xC08),
    DN(F_4,5,0xC08),
    DN(___,0,0xA0F),
    DN(F_4,5,0xC08),
    DN(F_4,5,0xC08),
    DN(F_4,5,0xC08),
    DN(___,0,0xA0F),
    DN(___,0,0x000),
    DN(___,0,0x000),
    DN(___,0,0x000),
    DN(___,0,0x000),
    DN(F_4,5,0xC08),
    DN(F_4,5,0xC08),
    DN(F_4,5,0xC08),
    DN(F_4,5,0xC08),
    DN(F_4,5,0xC08),
    DN(F_4,5,0xC08),
    DN(G_4,5,0xC08),
    DN(___,0,0xA0F),
    DN(G_4,5,0xC08),
    DN(G_4,5,0xC08),
    DN(G_4,5,0xC08),
    DN(___,0,0xA0F),
    DN(___,0,0x000),
    DN(___,0,0x000),
    DN(___,0,0x000),
    DN(___,0,0x000),
    DN(G_4,5,0xC08),
    DN(G_4,5,0xC08),
    DN(G_4,5,0xC08),
    DN(G_4,5,0xC08),
    DN(G_4,5,0xC08),
    DN(G_4,5,0xC08),
    DN(G_4,5,0xC08),
    DN(___,0,0xA0F),
    DN(G_4,5,0xC08),
    DN(G_4,5,0xC08),
    DN(G_4,5,0xC08),
    DN(___,0,0xA0F),
    DN(___,0,0x000),
    DN(___,0,0x000),
    DN(___,0,0x000),
    DN(___,0,0x000),
    DN(G_4,5,0xC08),
    DN(G_4,5,0xC08),
    DN(G_4,5,0xC08),
    DN(G_4,5,0xC08),
    DN(G_4,5,0xC08),
    DN(G_4,5,0xC08),
};
static const unsigned char P3[] = {
    DN(B_6,3,0xC19),
    DN(___,0,0xA0F),
    DN(B_6,3,0xC19),
    DN(B_6,3,0xC19),
    DN(Cs7,5,0xC19),
    DN(___,0,0xA0F),
    DN(B_6,3,0xC19),
    DN(___,0,0xA0F),
    DN(B_6,3,0xC19),
    DN(___,0,0xA0F),
    DN(B_6,3,0xC19),
    DN(Cs7,4,0xC19),
    DN(Cs7,4,0xC19),
    DN(Cs7,4,0xC19),
    DN(Cs7,4,0xC19),
    DN(___,0,0xA0F),
    DN(B_6,3,0xC19),
    DN(___,0,0xA0F),
    DN(B_6,3,0xC19),
    DN(B_6,3,0xC19),
    DN(Cs7,5,0xC19),
    DN(___,0,0xA0F),
    DN(B_6,3,0xC19),
    DN(___,0,0xA0F),
    DN(B_6,3,0xC19),
    DN(___,0,0xA0F),
    DN(B_6,3,0xC19),
    DN(Cs7,4,0xC19),
    DN(Cs7,4,0xC19),
    DN(Cs7,4,0xC19),
    DN(Cs7,4,0xC19),
    DN(___,0,0xA0F),
    DN(B_6,3,0xC19),
    DN(___,0,0xA0F),
    DN(B_6,3,0xC19),
    DN(B_6,3,0xC19),
    DN(Cs7,5,0xC19),
    DN(___,0,0xA0F),
    DN(B_6,3,0xC19),
    DN(___,0,0xA0F),
    DN(B_6,3,0xC19),
    DN(___,0,0xA0F),
    DN(B_6,3,0xC19),
    DN(Cs7,4,0xC19),
    DN(Cs7,4,0xC19),
    DN(Cs7,4,0xC19),
    DN(Cs7,4,0xC19),
    DN(___,0,0xA0F),
    DN(B_6,3,0xC19),
    DN(___,0,0xA0F),
    DN(B_6,3,0xC19),
    DN(B_6,3,0xC19),
    DN(Cs7,5,0xC19),
    DN(___,0,0xA0F),
    DN(B_6,3,0xC19),
    DN(___,0,0xA0F),
    DN(B_6,3,0xC19),
    DN(___,0,0xA0F),
    DN(B_6,3,0xC19),
    DN(Cs7,4,0xC19),
    DN(Cs7,4,0xC19),
    DN(Cs7,4,0xC19),
    DN(Cs7,4,0xC19),
    DN(___,0,0xA0F),
};
static const unsigned char P7[] = {
    DN(C_6,8,0xC0B),
    DN(___,0,0x000),
    DN(G_5,8,0xC0B),
    DN(G_5,8,0xC0B),
    DN(C_6,8,0xC0B),
    DN(___,0,0x000),
    DN(___,0,0x000),
    DN(___,0,0x000),
    DN(___,0,0x000),
    DN(___,0,0x000),
    DN(G_5,8,0xC0B),
    DN(___,0,0x000),
    DN(C_6,8,0xC0B),
    DN(___,0,0x000),
    DN(G_6,8,0xC0B),
    DN(___,0,0x000),
    DN(D_6,8,0xC0B),
    DN(___,0,0x000),
    DN(As5,8,0xC0B),
    DN(C_6,8,0xC0B),
    DN(D_6,8,0xC0B),
    DN(___,0,0x000),
    DN(___,0,0x000),
    DN(___,0,0x000),
    DN(___,0,0x000),
    DN(___,0,0x000),
    DN(G_6,8,0xC0B),
    DN(Gs6,8,0xC0B),
    DN(As6,8,0xC0B),
    DN(Gs6,8,0xC0B),
    DN(Gs6,8,0xC0B),
    DN(As6,8,0xC0B),
    DN(G_6,8,0xC0B),
    DN(___,0,0x000),
    DN(___,0,0x000),
    DN(___,0,0x000),
    DN(___,0,0x000),
    DN(___,0,0x000),
    DN(___,0,0x000),
    DN(___,0,0x000),
    DN(___,0,0x000),
    DN(___,0,0x000),
    DN(___,0,0x000),
    DN(___,0,0x000),
    DN(___,0,0x000),
    DN(___,0,0x000),
    DN(___,0,0x000),
    DN(___,0,0x000),
    DN(___,0,0x000),
    DN(___,0,0x000),
    DN(___,0,0x000),
    DN(___,0,0x000),
    DN(___,0,0x000),
    DN(___,0,0x000),
    DN(___,0,0x000),
    DN(___,0,0x000),
    DN(___,0,0x000),
    DN(___,0,0x000),
    DN(___,0,0x000),
    DN(___,0,0x000),
    DN(___,0,0x000),
    DN(___,0,0x000),
    DN(___,0,0x000),
    DN(___,0,0x000),
};
static const unsigned char P9[] = {
    DN(Gs6,8,0xC0B),
    DN(___,0,0x000),
    DN(F_6,8,0xC0B),
    DN(G_6,8,0xC0B),
    DN(Gs6,8,0xC0B),
    DN(___,0,0x000),
    DN(___,0,0x000),
    DN(___,0,0x000),
    DN(___,0,0x000),
    DN(___,0,0x000),
    DN(F_6,8,0xC0B),
    DN(G_6,8,0xC0B),
    DN(Gs6,8,0xC0B),
    DN(G_6,8,0xC0B),
    DN(F_6,8,0xC0B),
    DN(Gs6,8,0xC0B),
    DN(G_6,8,0xC0B),
    DN(___,0,0x000),
    DN(Ds6,8,0xC0B),
    DN(F_6,8,0xC0B),
    DN(G_6,8,0xC0B),
    DN(___,0,0x000),
    DN(___,0,0x000),
    DN(___,0,0x000),
    DN(___,0,0x000),
    DN(___,0,0x000),
    DN(Ds6,8,0xC0B),
    DN(F_6,8,0xC0B),
    DN(G_6,8,0xC0B),
    DN(F_6,8,0xC0B),
    DN(Ds6,8,0xC0B),
    DN(G_6,8,0xC0B),
    DN(F_6,8,0xC0B),
    DN(___,0,0x000),
    DN(D_6,8,0xC0B),
    DN(Ds6,8,0xC0B),
    DN(F_6,8,0xC0B),
    DN(___,0,0x000),
    DN(___,0,0x000),
    DN(___,0,0x000),
    DN(___,0,0x000),
    DN(___,0,0x000),
    DN(D_6,8,0xC0B),
    DN(Ds6,8,0xC0B),
    DN(F_6,8,0xC0B),
    DN(Ds6,8,0xC0B),
    DN(D_6,8,0xC0B),
    DN(F_6,8,0xC0B),
    DN(Ds6,8,0xC0B),
    DN(D_6,8,0xC0B),
    DN(C_6,8,0xC0B),
    DN(___,0,0x000),
    DN(___,0,0x000),
    DN(___,0,0x000),
    DN(___,0,0x000),
    DN(___,0,0x000),
    DN(___,0,0x000),
    DN(___,0,0x000),
    DN(___,0,0x000),
    DN(___,0,0x000),
    DN(___,0,0x000),
    DN(___,0,0x000),
    DN(___,0,0x000),
    DN(___,0,0x000),
};
static const unsigned char P10[] = {
    DN(Gs6,8,0xC0B),
    DN(___,0,0x000),
    DN(F_6,8,0xC0B),
    DN(G_6,8,0xC0B),
    DN(Gs6,8,0xC0B),
    DN(___,0,0x000),
    DN(___,0,0x000),
    DN(___,0,0x000),
    DN(___,0,0x000),
    DN(___,0,0x000),
    DN(F_6,8,0xC0B),
    DN(G_6,8,0xC0B),
    DN(Gs6,8,0xC0B),
    DN(G_6,8,0xC0B),
    DN(F_6,8,0xC0B),
    DN(Gs6,8,0xC0B),
    DN(G_6,8,0xC0B),
    DN(___,0,0x000),
    DN(Ds6,8,0xC0B),
    DN(F_6,8,0xC0B),
    DN(G_6,8,0xC0B),
    DN(___,0,0x000),
    DN(___,0,0x000),
    DN(___,0,0x000),
    DN(___,0,0x000),
    DN(___,0,0x000),
    DN(Ds6,8,0xC0B),
    DN(F_6,8,0xC0B),
    DN(G_6,8,0xC0B),
    DN(F_6,8,0xC0B),
    DN(Ds6,8,0xC0B),
    DN(G_6,8,0xC0B),
    DN(F_6,8,0xC0B),
    DN(___,0,0x000),
    DN(D_6,8,0xC0B),
    DN(Ds6,8,0xC0B),
    DN(F_6,8,0xC0B),
    DN(___,0,0x000),
    DN(___,0,0x000),
    DN(___,0,0x000),
    DN(___,0,0x000),
    DN(___,0,0x000),
    DN(D_6,8,0xC0B),
    DN(Ds6,8,0xC0B),
    DN(F_6,8,0xC0B),
    DN(Ds6,8,0xC0B),
    DN(D_6,8,0xC0B),
    DN(Ds6,8,0xC0B),
    DN(G_6,8,0xC0B),
    DN(___,0,0x000),
    DN(G_6,8,0xC0B),
    DN(G_6,8,0xC0B),
    DN(F_6,8,0xC0B),
    DN(___,0,0x000),
    DN(F_6,8,0xC0B),
    DN(F_6,8,0xC0B),
    DN(Ds6,8,0xC0B),
    DN(___,0,0x000),
    DN(Ds6,8,0xC0B),
    DN(Ds6,8,0xC0B),
    DN(D_6,8,0xC0B),
    DN(___,0,0x000),
    DN(D_6,8,0xC0B),
    DN(D_6,8,0xC0B),
};
static const unsigned char P11[] = {
    DN(Gs4,5,0xC0B),
    DN(___,0,0x000),
    DN(F_4,5,0xC0B),
    DN(G_4,5,0xC0B),
    DN(Gs4,5,0xC0B),
    DN(___,0,0x000),
    DN(___,0,0x000),
    DN(___,0,0x000),
    DN(___,0,0x000),
    DN(___,0,0x000),
    DN(F_4,5,0xC0B),
    DN(G_4,5,0xC0B),
    DN(Gs4,5,0xC0B),
    DN(G_4,5,0xC0B),
    DN(F_4,5,0xC0B),
    DN(Gs4,5,0xC0B),
    DN(G_4,5,0xC0B),
    DN(___,0,0x000),
    DN(Ds4,5,0xC0B),
    DN(F_4,5,0xC0B),
    DN(G_4,5,0xC0B),
    DN(___,0,0x000),
    DN(___,0,0x000),
    DN(___,0,0x000),
    DN(___,0,0x000),
    DN(___,0,0x000),
    DN(Ds4,5,0xC0B),
    DN(F_4,5,0xC0B),
    DN(G_4,5,0xC0B),
    DN(F_4,5,0xC0B),
    DN(Ds4,5,0xC0B),
    DN(G_4,5,0xC0B),
    DN(F_4,5,0xC0B),
    DN(___,0,0x000),
    DN(D_4,5,0xC0B),
    DN(Ds4,5,0xC0B),
    DN(F_4,5,0xC0B),
    DN(___,0,0x000),
    DN(___,0,0x000),
    DN(___,0,0x000),
    DN(___,0,0x000),
    DN(___,0,0x000),
    DN(D_4,5,0xC0B),
    DN(Ds4,5,0xC0B),
    DN(F_4,5,0xC0B),
    DN(Ds4,5,0xC0B),
    DN(D_4,5,0xC0B),
    DN(Ds4,5,0xC0B),
    DN(G_4,5,0xC0B),
    DN(___,0,0x000),
    DN(G_4,5,0xC0B),
    DN(G_4,5,0xC0B),
    DN(F_4,5,0xC0B),
    DN(___,0,0x000),
    DN(F_4,5,0xC0B),
    DN(F_4,5,0xC0B),
    DN(Ds4,5,0xC0B),
    DN(___,0,0x000),
    DN(Ds4,5,0xC0B),
    DN(Ds4,5,0xC0B),
    DN(D_4,5,0xC0B),
    DN(___,0,0x000),
    DN(D_4,5,0xC0B),
    DN(D_4,5,0xC0B),
};
static const unsigned char P12[] = {
    DN(Gs4,5,0xC08),
    DN(___,0,0xA0F),
    DN(Gs4,5,0xC08),
    DN(Gs4,5,0xC08),
    DN(Gs4,5,0xC08),
    DN(___,0,0xA0F),
    DN(___,0,0x000),
    DN(___,0,0x000),
    DN(___,0,0x000),
    DN(___,0,0x000),
    DN(Gs4,5,0xC08),
    DN(Gs4,5,0xC08),
    DN(Gs4,5,0xC08),
    DN(Gs4,5,0xC08),
    DN(Gs4,5,0xC08),
    DN(Gs4,5,0xC08),
    DN(G_4,5,0xC08),
    DN(___,0,0xA0F),
    DN(G_4,5,0xC08),
    DN(G_4,5,0xC08),
    DN(G_4,5,0xC08),
    DN(___,0,0xA0F),
    DN(___,0,0x000),
    DN(___,0,0x000),
    DN(___,0,0x000),
    DN(___,0,0x000),
    DN(G_4,5,0xC08),
    DN(G_4,5,0xC08),
    DN(G_4,5,0xC08),
    DN(G_4,5,0xC08),
    DN(G_4,5,0xC08),
    DN(G_4,5,0xC08),
    DN(F_4,5,0xC08),
    DN(___,0,0xA0F),
    DN(F_4,5,0xC08),
    DN(F_4,5,0xC08),
    DN(F_4,5,0xC08),
    DN(___,0,0xA0F),
    DN(___,0,0x000),
    DN(___,0,0x000),
    DN(___,0,0x000),
    DN(___,0,0x000),
    DN(F_4,5,0xC08),
    DN(F_4,5,0xC08),
    DN(F_4,5,0xC08),
    DN(F_4,5,0xC08),
    DN(F_4,5,0xC08),
    DN(F_4,5,0xC08),
    DN(G_4,5,0xC08),
    DN(___,0,0xA0F),
    DN(G_4,5,0xC08),
    DN(G_4,5,0xC08),
    DN(G_4,5,0xC08),
    DN(___,0,0xA0F),
    DN(___,0,0x000),
    DN(___,0,0x000),
    DN(___,0,0x000),
    DN(___,0,0x000),
    DN(G_4,5,0xC08),
    DN(G_4,5,0xC08),
    DN(G_4,5,0xC08),
    DN(G_4,5,0xC08),
    DN(G_4,5,0xC08),
    DN(___,0,0x000),
};
static const unsigned char P13[] = {
    DN(Gs4,5,0xC08),
    DN(___,0,0xA0F),
    DN(Gs4,5,0xC08),
    DN(Gs4,5,0xC08),
    DN(Gs4,5,0xC08),
    DN(___,0,0xA0F),
    DN(___,0,0x000),
    DN(___,0,0x000),
    DN(___,0,0x000),
    DN(___,0,0x000),
    DN(Gs4,5,0xC08),
    DN(Gs4,5,0xC08),
    DN(Gs4,5,0xC08),
    DN(Gs4,5,0xC08),
    DN(Gs4,5,0xC08),
    DN(Gs4,5,0xC08),
    DN(G_4,5,0xC08),
    DN(___,0,0xA0F),
    DN(G_4,5,0xC08),
    DN(G_4,5,0xC08),
    DN(G_4,5,0xC08),
    DN(___,0,0xA0F),
    DN(___,0,0x000),
    DN(___,0,0x000),
    DN(___,0,0x000),
    DN(___,0,0x000),
    DN(G_4,5,0xC08),
    DN(G_4,5,0xC08),
    DN(G_4,5,0xC08),
    DN(G_4,5,0xC08),
    DN(G_4,5,0xC08),
    DN(G_4,5,0xC08),
    DN(F_4,5,0xC08),
    DN(___,0,0xA0F),
    DN(F_4,5,0xC08),
    DN(F_4,5,0xC08),
    DN(F_4,5,0xC08),
    DN(___,0,0xA0F),
    DN(___,0,0x000),
    DN(___,0,0x000),
    DN(___,0,0x000),
    DN(___,0,0x000),
    DN(F_4,5,0xC08),
    DN(F_4,5,0xC08),
    DN(F_4,5,0xC08),
    DN(F_4,5,0xC08),
    DN(F_4,5,0xC08),
    DN(F_4,5,0xC08),
    DN(G_4,5,0xC08),
    DN(___,0,0xA0F),
    DN(G_4,5,0xC08),
    DN(G_4,5,0xC08),
    DN(F_4,5,0xC08),
    DN(___,0,0xA0F),
    DN(F_4,5,0xC08),
    DN(F_4,5,0xC08),
    DN(Ds4,5,0xC08),
    DN(___,0,0xA0F),
    DN(Ds4,5,0xC08),
    DN(Ds4,5,0xC08),
    DN(D_4,5,0xC08),
    DN(___,0,0xA0F),
    DN(D_4,5,0xC08),
    DN(___,0,0xB02),
};
static const unsigned char P15[] = {
    DN(C_4,5,0xC0B),
    DN(___,0,0x000),
    DN(G_3,5,0xC0B),
    DN(G_3,5,0xC0B),
    DN(C_4,5,0xC0B),
    DN(___,0,0x000),
    DN(___,0,0x000),
    DN(___,0,0x000),
    DN(___,0,0x000),
    DN(___,0,0x000),
    DN(G_3,5,0xC0B),
    DN(___,0,0x000),
    DN(C_4,5,0xC0B),
    DN(___,0,0x000),
    DN(G_4,5,0xC0B),
    DN(___,0,0x000),
    DN(D_4,5,0xC0B),
    DN(___,0,0x000),
    DN(As3,5,0xC0B),
    DN(C_4,5,0xC0B),
    DN(D_4,5,0xC0B),
    DN(___,0,0x000),
    DN(___,0,0x000),
    DN(___,0,0x000),
    DN(___,0,0x000),
    DN(___,0,0x000),
    DN(D_4,5,0xC0B),
    DN(Ds4,5,0xC0B),
    DN(D_4,5,0xC0B),
    DN(Ds4,5,0xC0B),
    DN(D_4,5,0xC0B),
    DN(As3,5,0xC0B),
    DN(C_4,5,0xC0B),
    DN(___,0,0x000),
    DN(___,0,0x000),
    DN(___,0,0x000),
    DN(___,0,0x000),
    DN(___,0,0x000),
    DN(___,0,0x000),
    DN(___,0,0x000),
    DN(___,0,0x000),
    DN(___,0,0x000),
    DN(___,0,0x000),
    DN(___,0,0x000),
    DN(___,0,0x000),
    DN(___,0,0x000),
    DN(___,0,0x000),
    DN(___,0,0x000),
    DN(___,0,0x000),
    DN(___,0,0x000),
    DN(___,0,0x000),
    DN(___,0,0x000),
    DN(___,0,0x000),
    DN(___,0,0x000),
    DN(___,0,0x000),
    DN(___,0,0x000),
    DN(___,0,0x000),
    DN(___,0,0x000),
    DN(___,0,0x000),
    DN(___,0,0x000),
    DN(___,0,0x000),
    DN(___,0,0x000),
    DN(___,0,0x000),
    DN(___,0,0x000),
};
static const unsigned char P17[] = {
    DN(C_4,5,0xC0B),
    DN(___,0,0x000),
    DN(G_3,5,0xC0B),
    DN(G_3,5,0xC0B),
    DN(C_4,5,0xC0B),
    DN(___,0,0x000),
    DN(___,0,0x000),
    DN(___,0,0x000),
    DN(___,0,0x000),
    DN(___,0,0x000),
    DN(G_3,5,0xC0B),
    DN(___,0,0x000),
    DN(C_4,5,0xC0B),
    DN(___,0,0x000),
    DN(G_4,5,0xC0B),
    DN(___,0,0x000),
    DN(D_4,5,0xC0B),
    DN(___,0,0x000),
    DN(As3,5,0xC0B),
    DN(C_4,5,0xC0B),
    DN(D_4,5,0xC0B),
    DN(___,0,0x000),
    DN(___,0,0x000),
    DN(___,0,0x000),
    DN(___,0,0x000),
    DN(___,0,0x000),
    DN(G_4,5,0xC0B),
    DN(Gs4,5,0xC0B),
    DN(As4,5,0xC0B),
    DN(Gs4,5,0xC0B),
    DN(Gs4,5,0xC0B),
    DN(As4,5,0xC0B),
    DN(G_4,5,0xC0B),
    DN(___,0,0x000),
    DN(___,0,0x000),
    DN(___,0,0x000),
    DN(___,0,0x000),
    DN(___,0,0x000),
    DN(___,0,0x000),
    DN(___,0,0x000),
    DN(___,0,0x000),
    DN(___,0,0x000),
    DN(___,0,0x000),
    DN(___,0,0x000),
    DN(___,0,0x000),
    DN(___,0,0x000),
    DN(___,0,0x000),
    DN(___,0,0x000),
    DN(___,0,0x000),
    DN(___,0,0x000),
    DN(___,0,0x000),
    DN(___,0,0x000),
    DN(___,0,0x000),
    DN(___,0,0x000),
    DN(___,0,0x000),
    DN(___,0,0x000),
    DN(___,0,0x000),
    DN(___,0,0x000),
    DN(___,0,0x000),
    DN(___,0,0x000),
    DN(___,0,0x000),
    DN(___,0,0x000),
    DN(___,0,0x000),
    DN(___,0,0x000),
};
static const unsigned char P19[] = {
    DN(Gs4,5,0xC0B),
    DN(___,0,0x000),
    DN(F_4,5,0xC0B),
    DN(G_4,5,0xC0B),
    DN(Gs4,5,0xC0B),
    DN(___,0,0x000),
    DN(___,0,0x000),
    DN(___,0,0x000),
    DN(___,0,0x000),
    DN(___,0,0x000),
    DN(F_4,5,0xC0B),
    DN(G_4,5,0xC0B),
    DN(Gs4,5,0xC0B),
    DN(G_4,5,0xC0B),
    DN(F_4,5,0xC0B),
    DN(Gs4,5,0xC0B),
    DN(G_4,5,0xC0B),
    DN(___,0,0x000),
    DN(Ds4,5,0xC0B),
    DN(F_4,5,0xC0B),
    DN(G_4,5,0xC0B),
    DN(___,0,0x000),
    DN(___,0,0x000),
    DN(___,0,0x000),
    DN(___,0,0x000),
    DN(___,0,0x000),
    DN(Ds4,5,0xC0B),
    DN(F_4,5,0xC0B),
    DN(G_4,5,0xC0B),
    DN(F_4,5,0xC0B),
    DN(Ds4,5,0xC0B),
    DN(G_4,5,0xC0B),
    DN(F_4,5,0xC0B),
    DN(___,0,0x000),
    DN(D_4,5,0xC0B),
    DN(Ds4,5,0xC0B),
    DN(F_4,5,0xC0B),
    DN(___,0,0x000),
    DN(___,0,0x000),
    DN(___,0,0x000),
    DN(___,0,0x000),
    DN(___,0,0x000),
    DN(D_4,5,0xC0B),
    DN(Ds4,5,0xC0B),
    DN(F_4,5,0xC0B),
    DN(Ds4,5,0xC0B),
    DN(D_4,5,0xC0B),
    DN(F_4,5,0xC0B),
    DN(Ds4,5,0xC0B),
    DN(D_4,5,0xC0B),
    DN(C_4,5,0xC0B),
    DN(___,0,0x000),
    DN(___,0,0x000),
    DN(___,0,0x000),
    DN(___,0,0x000),
    DN(___,0,0x000),
    DN(___,0,0x000),
    DN(___,0,0x000),
    DN(___,0,0x000),
    DN(___,0,0x000),
    DN(___,0,0x000),
    DN(___,0,0x000),
    DN(___,0,0x000),
    DN(___,0,0x000),
};

static const unsigned char* const order1[] = {P0,P1,P7,P1,P7,P9,P10};
static const unsigned char* const order2[] = {P0,P15,P17,P15,P17,P19,P11};
static const unsigned char* const order3[] = {P2,P2,P2,P2,P2,P12,P13};
static const unsigned char* const order4[] = {P3,P3,P3,P3,P3,P3,P3};

static const unsigned char duty_instruments[] = {
8,0,0,128,
8,64,240,128,
8,128,240,128,
8,192,240,128,
8,0,241,128,
8,64,241,128,
8,128,241,128,
8,192,241,128,
8,0,240,128,
8,128,240,128,
8,128,240,128,
8,128,240,128,
8,128,240,128,
8,128,240,128,
8,128,240,128,
};
static const unsigned char wave_instruments[] = {
0,32,0,128,
0,32,1,128,
0,32,2,128,
0,32,3,128,
0,32,4,128,
0,32,5,128,
0,32,6,128,
0,32,7,128,
0,32,8,128,
0,32,9,128,
0,32,10,128,
0,32,11,128,
0,32,12,128,
0,32,13,128,
0,32,14,128,
};
static const unsigned char noise_instruments[] = {
240,0,0,0,0,0,0,0,
240,0,0,0,0,0,0,0,
240,0,0,0,0,0,0,0,
240,0,0,0,0,0,0,0,
240,0,0,0,0,0,0,0,
240,0,0,0,0,0,0,0,
240,0,0,0,0,0,0,0,
240,0,0,0,0,0,0,0,
240,0,0,0,0,0,0,0,
240,0,0,0,0,0,0,0,
240,0,0,0,0,0,0,0,
240,0,0,0,0,0,0,0,
240,0,0,0,0,0,0,0,
240,0,0,0,0,0,0,0,
240,0,0,0,0,0,0,0,
};

static const unsigned char waves[] = {
    0,0,255,255,255,255,255,255,255,255,255,255,255,255,255,255,
    0,0,0,0,255,255,255,255,255,255,255,255,255,255,255,255,
    0,0,0,0,0,0,0,0,255,255,255,255,255,255,255,255,
    0,0,0,0,0,0,0,0,0,0,0,0,255,255,255,255,
    0,1,18,35,52,69,86,103,120,137,154,171,188,205,222,239,
    254,220,186,152,118,84,50,16,18,52,86,120,154,188,222,255,
    122,205,219,117,33,19,104,189,220,151,65,1,71,156,221,184,
    15,15,15,15,15,15,15,15,15,15,15,15,15,15,15,15,
    254,252,250,248,246,244,242,240,242,244,246,248,250,252,254,255,
    254,221,204,187,170,153,136,119,138,189,241,36,87,138,189,238,
    132,17,97,237,87,71,90,173,206,163,23,121,221,32,3,71,
    152,109,139,37,184,112,216,116,237,120,214,81,34,129,211,52,
    106,81,112,185,160,163,55,211,196,140,210,83,184,202,114,227,
    114,24,225,52,131,96,204,87,41,190,236,222,54,33,176,230,
    114,100,99,80,150,82,19,35,57,199,236,116,202,54,90,120,
    73,48,196,181,78,86,107,6,87,73,61,184,118,46,217,9,
};

const hUGESong_t titleSong = {8, &order_cnt, order1, order2, order3,order4, duty_instruments, wave_instruments, noise_instruments, NULL, waves};
